<?xml version="1.0" encoding="UTF-8" standalone="no"?>
<svg
   width="32"
   height="32"
   viewBox="0 0 32 32"
   version="1.1"
   id="svg1"
   sodipodi:docname="sample.svg"
   inkscape:version="1.4.3 (0d15f75042, 2025-12-25)"
   xmlns:inkscape="http://www.inkscape.org/namespaces/inkscape"
   xmlns:sodipodi="http://sodipodi.sourceforge.net/DTD/sodipodi-0.dtd"
   xmlns:xlink="http://www.w3.org/1999/xlink"
   xmlns="http://www.w3.org/2000/svg"
   xmlns:svg="http://www.w3.org/2000/svg">
  <defs
     id="defs1">
    <linearGradient
       id="linearGradient4"
       inkscape:collect="always">
      <stop
         style="stop-color:#a333ff;stop-opacity:1;"
         offset="0"
         id="stop4" />
      <stop
         style="stop-color:#ffd433;stop-opacity:1;"
         offset="1"
         id="stop5" />
    </linearGradient>
    <radialGradient
       inkscape:collect="always"
       xlink:href="#linearGradient4"
       id="radialGradient5"
       cx="-61.269527"
       cy="7.9494238"
       fx="-61.269527"
       fy="7.9494238"
       r="8"
       gradientUnits="userSpaceOnUse"
       spreadMethod="reflect"
       gradientTransform="matrix(0.10974794,0.10974794,-0.31307985,0.31307985,23.87069,2.8614107)" />
  </defs>
  <sodipodi:namedview
     id="namedview1"
     pagecolor="#ffffff"
     bordercolor="#000000"
     borderopacity="0.25"
     inkscape:showpageshadow="2"
     inkscape:pageopacity="0.0"
     inkscape:pagecheckerboard="0"
     inkscape:deskcolor="#d1d1d1"
     inkscape:zoom="22.328125"
     inkscape:cx="18.519244"
     inkscape:cy="17.175647"
     inkscape:window-width="3013"
     inkscape:window-height="1656"
     inkscape:window-x="0"
     inkscape:window-y="0"
     inkscape:window-maximized="1"
     inkscape:current-layer="svg1" />
  <rect
     width="16"
     height="16"
     fill="#3366ff"
     id="rect1"
     x="0"
     y="0"
     style="stroke-width:0.5;fill:#922bff;fill-opacity:1" />
  <rect
     width="16"
     height="16"
     fill="#3366ff"
     id="rect2"
     x="16"
     y="0"
     style="stroke-width:0.5;fill:url(#radialGradient5)" />
  <path
     id="rect3"
     style="stroke-width:0.5;fill:#fdd137;fill-opacity:1"
     d="M 16 16 L 16 24.765625 C 16.152527 24.782883 16.288137 24.84605 16.40625 24.955078 C 16.546575 25.079212 16.617188 25.251375 16.617188 25.472656 C 16.617188 25.688541 16.546575 25.862657 16.40625 25.992188 C 16.288137 26.101215 16.152527 26.164383 16 26.181641 L 16 26.703125 L 16.664062 26.703125 L 16.664062 29.34375 C 16.664062 29.51106 16.684877 29.650333 16.722656 29.763672 C 16.765833 29.871614 16.829662 29.953841 16.916016 30.007812 C 17.007766 30.061784 17.125762 30.087891 17.271484 30.087891 C 17.368632 30.087891 17.490997 30.076276 17.636719 30.054688 C 17.782441 30.027702 17.947358 29.971119 18.130859 29.884766 L 18.275391 30.785156 C 18.124272 30.855319 17.980169 30.911901 17.839844 30.955078 C 17.699519 30.992858 17.563124 31.018965 17.433594 31.035156 C 17.304063 31.051348 17.183652 31.058594 17.070312 31.058594 C 16.687118 31.058594 16.380975 30.987519 16.154297 30.841797 C 16.098516 30.803703 16.04755 30.760826 16 30.714844 L 16 32 L 32 32 L 32 16 L 16 16 z M 18.5 16.625 A 1.875 1.875 0 0 1 20.375 18.5 A 1.875 1.875 0 0 1 18.5 20.375 A 1.875 1.875 0 0 1 16.625 18.5 A 1.875 1.875 0 0 1 18.5 16.625 z M 22.75 20.640625 A 2.109375 2.109375 0 0 1 24.859375 22.75 A 2.109375 2.109375 0 0 1 22.75 24.859375 A 2.109375 2.109375 0 0 1 20.640625 22.75 A 2.109375 2.109375 0 0 1 22.75 20.640625 z M 28.6875 26.710938 A 1.9775391 1.9775391 0 0 1 30.664062 28.6875 A 1.9775391 1.9775391 0 0 1 28.6875 30.664062 A 1.9775391 1.9775391 0 0 1 26.710938 28.6875 A 1.9775391 1.9775391 0 0 1 28.6875 26.710938 z " />
  <path
     id="rect4"
     style="fill:#aa3ff1;fill-opacity:1;stroke-width:0.5"
     d="M 0 16 L 0 32 L 16 32 L 16 30.714844 C 15.85892 30.578415 15.754169 30.407039 15.685547 30.201172 C 15.593796 29.920522 15.546875 29.585857 15.546875 29.197266 L 15.546875 27.626953 L 14.365234 27.626953 L 14.365234 26.703125 L 16 26.703125 L 16 26.181641 C 15.971317 26.184886 15.942009 26.185547 15.912109 26.185547 C 15.723211 26.185547 15.558294 26.121718 15.417969 25.992188 C 15.277644 25.862657 15.207031 25.688541 15.207031 25.472656 C 15.207031 25.251375 15.277644 25.079212 15.417969 24.955078 C 15.558294 24.825548 15.723211 24.761719 15.912109 24.761719 C 15.942009 24.761719 15.971317 24.76238 16 24.765625 L 16 16 L 0 16 z M 14.5 16.5 L 15.5 16.5 L 15.5 17.5 L 14.5 17.5 L 14.5 16.5 z M 9 17 L 11 17 L 11 19 L 9 19 L 9 17 z M 13 21 L 15 21 L 15 23 L 13 23 L 13 21 z M 11.921875 25.449219 L 11.921875 26.703125 L 13.710938 26.703125 L 13.710938 27.626953 L 11.921875 27.626953 L 11.921875 29.351562 C 11.921875 29.56205 11.945567 29.720183 11.994141 29.828125 C 12.048112 29.93067 12.123555 30.001283 12.220703 30.039062 C 12.317851 30.071445 12.428601 30.087891 12.552734 30.087891 C 12.763222 30.087891 12.944584 30.073861 13.095703 30.046875 C 13.246822 30.019889 13.426232 29.958476 13.636719 29.861328 L 13.791016 30.824219 C 13.585926 30.910572 13.36201 30.96957 13.119141 31.001953 C 12.881668 31.039733 12.652922 31.058594 12.431641 31.058594 C 12.086226 31.058594 11.791698 31.018457 11.548828 30.9375 C 11.305958 30.856543 11.119765 30.695995 10.990234 30.453125 C 10.866101 30.210255 10.804687 29.849945 10.804688 29.375 L 10.804688 27.626953 L 9.8320312 27.626953 L 9.8320312 26.703125 L 10.804688 26.703125 L 10.804688 25.626953 L 11.921875 25.449219 z M 3.2832031 26.589844 C 3.5368671 26.589844 3.7656131 26.608705 3.9707031 26.646484 C 4.1757932 26.678867 4.3832628 26.739818 4.59375 26.826172 L 4.3515625 27.724609 C 4.2328262 27.681433 4.0983846 27.643711 3.9472656 27.611328 C 3.8015437 27.578945 3.612935 27.5625 3.3808594 27.5625 C 3.0300474 27.5625 2.7495497 27.619083 2.5390625 27.732422 C 2.3339724 27.840364 2.1879162 27.988836 2.1015625 28.177734 C 2.0152088 28.366633 1.9707031 28.585717 1.9707031 28.833984 C 1.9707031 29.093046 2.0200396 29.316961 2.1171875 29.505859 C 2.2143354 29.689361 2.3700532 29.831049 2.5859375 29.933594 C 2.8018218 30.036139 3.0866881 30.087891 3.4375 30.087891 C 3.6102074 30.087891 3.7920323 30.076276 3.9863281 30.054688 C 4.180624 30.027702 4.3547404 29.987565 4.5058594 29.933594 L 4.6679688 30.857422 C 4.5168498 30.911393 4.3262879 30.956361 4.0996094 30.994141 C 3.8729309 31.037317 3.6088786 31.058594 3.3066406 31.058594 C 2.7237531 31.058594 2.2522312 30.961874 1.890625 30.767578 C 1.5290188 30.567885 1.2625512 30.301417 1.0898438 29.966797 C 0.92253344 29.626779 0.83789062 29.249562 0.83789062 28.833984 C 0.83789062 28.526349 0.88722708 28.236652 0.984375 27.966797 C 1.0815229 27.691544 1.2299945 27.451184 1.4296875 27.246094 C 1.6293805 27.041004 1.881818 26.88287 2.1894531 26.769531 C 2.4970882 26.650795 2.8622288 26.589844 3.2832031 26.589844 z M 7.1523438 26.589844 C 7.6164949 26.589844 7.9816355 26.660456 8.2460938 26.800781 C 8.510552 26.941106 8.6967454 27.141329 8.8046875 27.400391 C 8.9180267 27.659452 8.9746094 27.966057 8.9746094 28.322266 L 8.9746094 30.865234 C 8.8126962 30.903014 8.5699202 30.943151 8.2460938 30.986328 C 7.9276644 31.034902 7.5673547 31.058594 7.1679688 31.058594 C 6.8981134 31.058594 6.652922 31.034902 6.4316406 30.986328 C 6.2103592 30.937754 6.0193351 30.859895 5.8574219 30.751953 C 5.7009058 30.644011 5.5785412 30.50037 5.4921875 30.322266 C 5.4112309 30.138764 5.3710937 29.917264 5.3710938 29.658203 C 5.3710938 29.323583 5.4557366 29.061946 5.6230469 28.873047 C 5.7903572 28.678751 6.0074884 28.541894 6.2773438 28.460938 C 6.5471991 28.374584 6.8344808 28.332031 7.1367188 28.332031 C 7.2878377 28.332031 7.4271101 28.339277 7.5566406 28.355469 C 7.6861712 28.366263 7.803705 28.382708 7.90625 28.404297 L 7.90625 28.265625 C 7.90625 28.1253 7.8757744 28.002473 7.8164062 27.894531 C 7.7570381 27.781192 7.6627337 27.691718 7.5332031 27.626953 C 7.4036726 27.562188 7.2315093 27.529297 7.015625 27.529297 C 6.8051378 27.529297 6.602499 27.545742 6.4082031 27.578125 C 6.2139073 27.605111 6.053821 27.640417 5.9296875 27.683594 L 5.7753906 26.785156 C 5.9103183 26.736582 6.105711 26.69403 6.359375 26.65625 C 6.6184361 26.613073 6.8824884 26.589844 7.1523438 26.589844 z M 7.3632812 29.117188 C 7.2067652 29.117188 7.0607089 29.129264 6.9257812 29.15625 C 6.7908536 29.183236 6.6801037 29.234987 6.59375 29.310547 C 6.5127934 29.380709 6.4726562 29.486628 6.4726562 29.626953 C 6.4726563 29.815852 6.543269 29.952709 6.6835938 30.039062 C 6.8293156 30.120019 7.0179244 30.160156 7.25 30.160156 C 7.3687363 30.160156 7.484317 30.157741 7.5976562 30.152344 C 7.7163926 30.146947 7.8198963 30.142116 7.90625 30.136719 L 7.90625 29.15625 C 7.8360876 29.145456 7.7490294 29.13821 7.6464844 29.132812 C 7.5439393 29.122018 7.449635 29.117187 7.3632812 29.117188 z " />
  <rect
     width="8"
     height="8"
     fill="#3366ff"
     id="rect5"
     x="0"
     y="16"
     style="fill:#ff00ff;fill-opacity:1;stroke-width:0.25" />
  <path
     id="rect6"
     style="fill:#ff00ff;fill-opacity:1;stroke-width:0.25"
     d="M 8 24 L 8 26.699219 C 8.0896708 26.727503 8.172069 26.761503 8.2460938 26.800781 C 8.510552 26.941106 8.6967454 27.141329 8.8046875 27.400391 C 8.9180267 27.659452 8.9746094 27.966057 8.9746094 28.322266 L 8.9746094 30.865234 C 8.8126962 30.903014 8.5699202 30.943151 8.2460938 30.986328 C 8.1667586 30.99843 8.0843604 31.008491 8 31.017578 L 8 32 L 16 32 L 16 30.714844 C 15.85892 30.578415 15.754169 30.407039 15.685547 30.201172 C 15.593796 29.920522 15.546875 29.585857 15.546875 29.197266 L 15.546875 27.626953 L 14.365234 27.626953 L 14.365234 26.703125 L 16 26.703125 L 16 26.181641 C 15.971317 26.184886 15.942009 26.185547 15.912109 26.185547 C 15.723211 26.185547 15.558294 26.121718 15.417969 25.992188 C 15.277644 25.862657 15.207031 25.688541 15.207031 25.472656 C 15.207031 25.251375 15.277644 25.079212 15.417969 24.955078 C 15.558294 24.825548 15.723211 24.761719 15.912109 24.761719 C 15.942009 24.761719 15.971317 24.76238 16 24.765625 L 16 24 L 8 24 z M 11.921875 25.449219 L 11.921875 26.703125 L 13.710938 26.703125 L 13.710938 27.626953 L 11.921875 27.626953 L 11.921875 29.351562 C 11.921875 29.56205 11.945567 29.720183 11.994141 29.828125 C 12.048112 29.93067 12.123555 30.001283 12.220703 30.039062 C 12.317851 30.071445 12.428601 30.087891 12.552734 30.087891 C 12.763222 30.087891 12.944584 30.073861 13.095703 30.046875 C 13.246822 30.019889 13.426232 29.958476 13.636719 29.861328 L 13.791016 30.824219 C 13.585926 30.910572 13.36201 30.96957 13.119141 31.001953 C 12.881668 31.039733 12.652922 31.058594 12.431641 31.058594 C 12.086226 31.058594 11.791698 31.018457 11.548828 30.9375 C 11.305958 30.856543 11.119765 30.695995 10.990234 30.453125 C 10.866101 30.210255 10.804687 29.849945 10.804688 29.375 L 10.804688 27.626953 L 9.8320312 27.626953 L 9.8320312 26.703125 L 10.804688 26.703125 L 10.804688 25.626953 L 11.921875 25.449219 z " />
  <path
     id="rect7"
     style="fill:#ff00ff;fill-opacity:1;stroke-width:0.125"
     d="M 12 20 L 12 24 L 16 24 L 16 20 L 12 20 z M 13 21 L 15 21 L 15 23 L 13 23 L 13 21 z " />
  <path
     id="rect8"
     style="fill:#ff00ff;fill-opacity:1;stroke-width:0.125"
     d="M 8 16 L 8 20 L 12 20 L 12 16 L 8 16 z M 9 17 L 11 17 L 11 19 L 9 19 L 9 17 z " />
  <rect
     width="2"
     height="2"
     fill="#3366ff"
     id="rect13"
     x="14"
     y="18"
     style="fill:#ff00ff;fill-opacity:1;stroke-width:0.0625" />
  <rect
     width="2"
     height="2"
     fill="#3366ff"
     id="rect14"
     x="12"
     y="16"
     style="fill:#ff00ff;fill-opacity:1;stroke-width:0.0625" />
  <path
     id="path15"
     style="fill:#e5a56f;fill-opacity:1;stroke-width:1.01208"
     d="M 18.5 16 A 2.5 2.5 0 0 0 16 18.5 A 2.5 2.5 0 0 0 18.5 21 A 2.5 2.5 0 0 0 21 18.5 A 2.5 2.5 0 0 0 18.5 16 z M 18.5 16.625 A 1.875 1.875 0 0 1 20.375 18.5 A 1.875 1.875 0 0 1 18.5 20.375 A 1.875 1.875 0 0 1 16.625 18.5 A 1.875 1.875 0 0 1 18.5 16.625 z " />
  <path
     id="circle15"
     style="fill:#e5a56f;fill-opacity:1;stroke-width:1.51812"
     d="M 22.75 19 A 3.75 3.75 0 0 0 19 22.75 A 3.75 3.75 0 0 0 22.75 26.5 A 3.75 3.75 0 0 0 26.5 22.75 A 3.75 3.75 0 0 0 22.75 19 z M 22.75 20.640625 A 2.109375 2.109375 0 0 1 24.859375 22.75 A 2.109375 2.109375 0 0 1 22.75 24.859375 A 2.109375 2.109375 0 0 1 20.640625 22.75 A 2.109375 2.109375 0 0 1 22.75 20.640625 z " />
  <path
     id="circle16"
     style="fill:#e5a56f;fill-opacity:1;stroke-width:1.89765"
     d="M 28.6875 24 A 4.6875 4.6875 0 0 0 24 28.6875 A 4.6875 4.6875 0 0 0 28.6875 33.375 A 4.6875 4.6875 0 0 0 33.375 28.6875 A 4.6875 4.6875 0 0 0 28.6875 24 z M 28.6875 26.710938 A 1.9775391 1.9775391 0 0 1 30.664062 28.6875 A 1.9775391 1.9775391 0 0 1 28.6875 30.664062 A 1.9775391 1.9775391 0 0 1 26.710938 28.6875 A 1.9775391 1.9775391 0 0 1 28.6875 26.710938 z " />
  <path
     id="circle18"
     style="fill:#d99287;fill-opacity:1;stroke-width:1.13859"
     d="M 22.75 19.9375 A 2.8125 2.8125 0 0 0 19.9375 22.75 A 2.8125 2.8125 0 0 0 22.75 25.5625 A 2.8125 2.8125 0 0 0 25.5625 22.75 A 2.8125 2.8125 0 0 0 22.75 19.9375 z M 22.75 20.640625 A 2.109375 2.109375 0 0 1 24.859375 22.75 A 2.109375 2.109375 0 0 1 22.75 24.859375 A 2.109375 2.109375 0 0 1 20.640625 22.75 A 2.109375 2.109375 0 0 1 22.75 20.640625 z " />
  <path
     id="circle19"
     style="fill:#d99287;fill-opacity:1;stroke-width:1.42324"
     d="M 28.6875 25.171875 A 3.515625 3.515625 0 0 0 25.171875 28.6875 A 3.515625 3.515625 0 0 0 28.6875 32.203125 A 3.515625 3.515625 0 0 0 32.203125 28.6875 A 3.515625 3.515625 0 0 0 28.6875 25.171875 z M 28.6875 26.710938 A 1.9775391 1.9775391 0 0 1 30.664062 28.6875 A 1.9775391 1.9775391 0 0 1 28.6875 30.664062 A 1.9775391 1.9775391 0 0 1 26.710938 28.6875 A 1.9775391 1.9775391 0 0 1 28.6875 26.710938 z " />
  <path
     id="circle22"
     style="fill:#c772af;fill-opacity:1;stroke-width:1.06743"
     d="M 28.6875 26.050781 A 2.6367188 2.6367188 0 0 0 26.050781 28.6875 A 2.6367188 2.6367188 0 0 0 28.6875 31.324219 A 2.6367188 2.6367188 0 0 0 31.324219 28.6875 A 2.6367188 2.6367188 0 0 0 28.6875 26.050781 z M 28.6875 26.710938 A 1.9775391 1.9775391 0 0 1 30.664062 28.6875 A 1.9775391 1.9775391 0 0 1 28.6875 30.664062 A 1.9775391 1.9775391 0 0 1 26.710938 28.6875 A 1.9775391 1.9775391 0 0 1 28.6875 26.710938 z " />
  <rect
     width="8"
     height="8"
     fill="#3366ff"
     id="rect23"
     x="0"
     y="0"
     style="fill:#ebb160;fill-opacity:1;stroke-width:0.25" />
  <rect
     width="8"
     height="8"
     fill="#3366ff"
     id="rect24"
     x="8"
     y="8"
     style="fill:#aa3ff1;fill-opacity:1;stroke-width:0.25" />
  <rect
     width="8"
     height="8"
     fill="#3366ff"
     id="rect25"
     x="8"
     y="0"
     style="fill:#cf809e;fill-opacity:1;stroke-width:0.25" />
  <rect
     width="8"
     height="8"
     fill="#3366ff"
     id="rect26"
     x="0"
     y="8"
     style="fill:#fdd039;fill-opacity:1;stroke-width:0.25" />
</svg>
